<svg xmlns="http://www.w3.org/2000/svg" width="240" height="240" viewBox="0 0 100 100"><rect x="7" y="7" width="86" height="86" rx="20" fill="#FFE3F1" stroke="#FF5DA2" stroke-width="5"/><circle cx="50" cy="50" r="33" fill="#fff" stroke="#FF5DA2" stroke-width="3"/><line x1="50" y1="25" x2="50" y2="20" stroke="#E23C86" stroke-width="3" stroke-linecap="round"/><line x1="63.5" y1="26.6" x2="65" y2="24" stroke="#E23C86" stroke-width="1.6" stroke-linecap="round"/><line x1="73.4" y1="36.5" x2="76" y2="35" stroke="#E23C86" stroke-width="1.6" stroke-linecap="round"/><line x1="75" y1="50" x2="80" y2="50" stroke="#E23C86" stroke-width="3" stroke-linecap="round"/><line x1="73.4" y1="63.5" x2="76" y2="65" stroke="#E23C86" stroke-width="1.6" stroke-linecap="round"/><line x1="63.5" y1="73.4" x2="65" y2="76" stroke="#E23C86" stroke-width="1.6" stroke-linecap="round"/><line x1="50" y1="75" x2="50" y2="80" stroke="#E23C86" stroke-width="3" stroke-linecap="round"/><line x1="36.5" y1="73.4" x2="35" y2="76" stroke="#E23C86" stroke-width="1.6" stroke-linecap="round"/><line x1="26.6" y1="63.5" x2="24" y2="65" stroke="#E23C86" stroke-width="1.6" stroke-linecap="round"/><line x1="25" y1="50" x2="20" y2="50" stroke="#E23C86" stroke-width="3" stroke-linecap="round"/><line x1="26.6" y1="36.5" x2="24" y2="35" stroke="#E23C86" stroke-width="1.6" stroke-linecap="round"/><line x1="36.5" y1="26.6" x2="35" y2="24" stroke="#E23C86" stroke-width="1.6" stroke-linecap="round"/><line x1="50" y1="50" x2="42.5" y2="63" stroke="#E23C86" stroke-width="4" stroke-linecap="round"/><line x1="50" y1="50" x2="50" y2="27" stroke="#E23C86" stroke-width="2.6" stroke-linecap="round"/><circle cx="50" cy="50" r="3.2" fill="#E23C86"/></svg>