<svg xmlns="http://www.w3.org/2000/svg" viewBox="0 0 100 100" preserveAspectRatio="xMidYMid meet"><rect x="7" y="7" width="86" height="86" rx="20" fill="#DFF7F2" stroke="#1FC2AE" stroke-width="5"/><g transform="translate(24 16) scale(1.444)"><path fill="#662113" d="M22 33c0 2.209-1.791 3-4 3s-4-.791-4-3l1-9c0-2.209.791-2 3-2s3-.209 3 2l1 9z"/><path fill="#5C913B" d="M34 17c0 8.837-7.163 12-16 12-8.836 0-16-3.163-16-12C2 8.164 11 0 18 0s16 8.164 16 17z"/><g fill="#3E721D"><ellipse cx="6" cy="21" rx="2" ry="1"/><ellipse cx="30" cy="21" rx="2" ry="1"/><ellipse cx="10" cy="25" rx="2" ry="1"/><ellipse cx="14" cy="22" rx="2" ry="1"/><ellipse cx="10" cy="16" rx="2" ry="1"/><ellipse cx="7" cy="12" rx="2" ry="1"/><ellipse cx="29" cy="12" rx="2" ry="1"/><ellipse cx="14" cy="10" rx="2" ry="1"/><ellipse cx="22" cy="10" rx="2" ry="1"/><ellipse cx="26" cy="16" rx="2" ry="1"/><ellipse cx="18" cy="17" rx="2" ry="1"/><ellipse cx="22" cy="22" rx="2" ry="1"/><ellipse cx="18" cy="26" rx="2" ry="1"/><ellipse cx="26" cy="25" rx="2" ry="1"/></g></g><text x="50" y="85.3" font-family="'Fredoka','Baloo 2','Trebuchet MS',Verdana,sans-serif" font-size="12.5" font-weight="700" fill="#11978A" text-anchor="middle">Tree</text></svg>